<?xml version="1.0" encoding="UTF-8" standalone="no"?>
<svg
   xmlns:dc="http://purl.org/dc/elements/1.1/"
   xmlns:cc="http://creativecommons.org/ns#"
   xmlns:rdf="http://www.w3.org/1999/02/22-rdf-syntax-ns#"
   xmlns:svg="http://www.w3.org/2000/svg"
   xmlns="http://www.w3.org/2000/svg"
   xmlns:sodipodi="http://sodipodi.sourceforge.net/DTD/sodipodi-0.dtd"
   xmlns:inkscape="http://www.inkscape.org/namespaces/inkscape"
   version="1.1"
   id="svg4257"
   viewBox="0 0 1920 640"
   height="640"
   width="1920"
   inkscape:version="0.91 r13725"
   sodipodi:docname="PEVO-Logo.svg">
  <sodipodi:namedview
     pagecolor="#ffffff"
     bordercolor="#666666"
     borderopacity="1"
     objecttolerance="10"
     gridtolerance="10"
     guidetolerance="10"
     inkscape:pageopacity="0"
     inkscape:pageshadow="2"
     inkscape:window-width="1829"
     inkscape:window-height="976"
     id="namedview7"
     showgrid="false"
     inkscape:zoom="2.0623948"
     inkscape:cx="1515.2595"
     inkscape:cy="49.579583"
     inkscape:window-x="-8"
     inkscape:window-y="-8"
     inkscape:window-maximized="1"
     inkscape:current-layer="svg4257" />
  <defs
     id="defs4259" />
  <metadata
     id="metadata4262">
    <rdf:RDF>
      <cc:Work
         rdf:about="">
        <dc:format>image/svg+xml</dc:format>
        <dc:type
           rdf:resource="http://purl.org/dc/dcmitype/StillImage" />
        <dc:title />
      </cc:Work>
    </rdf:RDF>
  </metadata>
  <path
     inkscape:connector-curvature="0"
     id="path4896"
     style="font-style:normal;font-variant:normal;font-weight:bold;font-stretch:normal;font-size:medium;line-height:1.25;font-family:'Nexa Bold';-inkscape-font-specification:'Nexa Bold, Bold';text-align:start;letter-spacing:0px;word-spacing:0px;writing-mode:lr-tb;text-anchor:start;fill:#006f92;fill-opacity:1;stroke:none;stroke-width:0.32465789"
     d="m 349.23261,425.11518 0,-62.46392 -11.80013,0 0,26.32408 -30.98664,0 0,-26.32408 -11.89022,0 0,62.46392 11.89022,0 0,-25.25327 30.98664,0 0,25.25327 z m -87.285,-34.97978 c 7.02604,0 12.61083,4.90787 12.61083,12.84971 0,7.67414 -5.58479,12.93895 -12.61083,12.93895 -6.93596,0 -12.88107,-4.9971 -12.88107,-12.93895 0,-7.67414 5.94511,-12.84971 12.88107,-12.84971 z m -24.59113,-27.48414 0,62.37469 10.26882,0 0.72063,-6.06792 c 3.42293,5.26482 8.91766,7.04951 14.3223,7.04951 13.06122,0 22.87966,-8.56648 22.87966,-23.02243 0,-15.16981 -9.63829,-23.02242 -22.60943,-23.02242 -4.68403,0 -11.98029,2.49857 -14.59253,7.04951 l 0,-24.36094 z m -40.21814,62.37469 0,-23.55782 c 0,-5.80021 3.69317,-10.88657 9.63828,-10.88657 5.9451,0 8.3772,4.90788 8.3772,10.70811 l 0,23.73628 10.98944,0 0,-23.73628 c 0,-13.20667 -6.21534,-20.88081 -18.82619,-20.88081 -5.76494,0 -10.89936,1.78468 -14.86276,8.03107 -2.52216,-6.06792 -7.83673,-8.20953 -13.1513,-8.20953 -4.23365,0 -9.36805,1.60621 -11.71006,6.06791 l -0.81071,-5.35405 -10.17873,0 0,44.08169 10.98944,0 0,-23.55782 c 0,-5.80021 3.51302,-11.06504 9.45813,-11.06504 6.03518,0 9.09781,5.26483 9.09781,11.06504 l 0,23.55782 z M 146.018,370.32539 c -6.48559,-6.33562 -14.95285,-9.54805 -23.42013,-9.54805 -22.24912,0 -33.328638,16.24062 -33.328638,33.81977 0,16.41908 9.638284,31.85659 33.328638,31.85659 11.07952,0 18.91625,-4.194 25.1316,-11.2435 l 0,-26.32408 -27.02323,0 0,10.52962 16.12386,0 0,11.06504 c -4.95427,3.92631 -9.27798,4.99712 -14.23223,4.99712 -15.67347,0 -21.70865,-10.61887 -21.70865,-20.88079 0,-12.84974 8.19704,-23.02244 21.70865,-23.02244 5.49472,0 11.80014,2.23086 16.03378,6.24639 z M 1381.6737,0.59783 c -138.6806,0 -206.302,106.50883 -206.302,212.44209 0,105.93324 65.329,207.83635 206.302,207.83635 140.9732,0 204.583,-104.20597 205.7292,-208.41207 1.147,-105.35754 -67.6213,-211.86637 -205.7292,-211.86637 z m 0,69.08679 c 94.5552,0 132.3773,75.9955 131.2313,143.93115 -1.147,66.20807 -36.6761,137.59786 -131.2313,137.59786 -94.5549,0 -130.0848,-70.81393 -131.8039,-137.02229 -1.7193,-67.93535 37.249,-144.50672 131.8039,-144.50672 z m -206.302,-69.08679 -88.0704,0 L 961.14617,326.41831 835.58619,0.59783 l -88.07044,0 173.16569,420.27844 81.52476,0 z m -470.42039,342.22669 -234.86505,0 0,-94.86286 226.49836,0 0,-73.84899 -226.49836,0 0,-96.66397 234.86505,0 0,-76.85087 -313.1536,0 0,420.27844 313.1536,0 z M 78.550099,75.32728 l 117.823931,0 c 99.97199,0 100.56705,148.2632 0,148.2632 l -117.823931,0 z M 196.37403,0 C 130.91622,0 65.458568,0.59783 7.6230533e-4,0.59783 l 0,418.48494 78.54933669467,0 0,-123.15418 117.823931,0 C 400.48334,295.92859 399.88828,0 196.37403,0 Z m 1548.34987,0.84231 -129.397,306.74737 106.4069,0 L 1592.1561,638.64512 1920,216.47718 l -131.5871,0 117.389,-215.87908 z m -250.7023,481.61431 0,155.98358 11.9545,0 0,-53.92578 65.999,53.92578 15.4414,0 0,-0.6685 -69.4858,-57.49111 62.2632,-51.47458 0,-0.44566 -16.1884,0 -58.0294,48.13207 0,-94.0358 z m -34.9801,45.45807 0,110.52551 -12.2036,0 0,-110.52551 z m -15.6904,-35.43057 c 0,11.5874 19.6752,11.5874 19.6752,0 0,-11.58734 -19.6752,-11.58734 -19.6752,0 z m -139.5241,35.87623 0,110.07985 12.2036,0 0,-61.27928 c 0,-22.72906 17.6827,-39.88723 43.0861,-40.11006 26.6487,-0.22283 43.8334,13.14717 43.8334,38.10455 l 0,63.28479 12.2034,0 0,-63.50761 c 0,-30.52823 -22.6637,-48.57775 -55.5387,-48.57775 -17.1847,0.22285 -34.3693,6.46219 -43.8333,21.61485 l 0,-19.60934 z m -139.6059,-45.90373 0,155.98358 12.2036,0 0,-60.38794 c 0,-22.9519 17.9319,-40.77857 43.8334,-40.77857 27.6449,0 39.5994,15.3755 39.5994,38.10457 l 0,63.06194 11.9545,0 0,-63.06194 c 0,-28.74557 -17.1847,-48.57774 -51.5539,-48.57774 -17.1847,0.22284 -34.3694,6.23934 -44.3314,22.0605 l 0,-66.4044 z m -33.3379,133.25448 c -9.9622,8.9134 -23.411,13.5929 -36.6109,13.5929 -27.8939,0 -51.3048,-16.2669 -51.3048,-45.90374 0,-29.6369 23.4109,-45.90374 51.3048,-45.90374 13.1999,0 26.8978,4.23385 36.8599,13.14718 l 7.9696,-6.90784 c -12.4526,-10.91883 -28.641,-16.48968 -44.8295,-16.48968 -35.6145,0 -63.2593,21.39201 -63.2593,56.15408 0,34.76204 28.641,56.15404 63.2593,56.15404 16.1885,0 32.3769,-5.348 44.8295,-16.4896 z M 945.89899,640 c 19.67523,0 41.09376,-7.1307 53.04833,-21.1692 l -8.71693,-6.2395 c -9.21491,10.9189 -28.1429,16.7127 -44.3314,16.7127 -25.40337,0 -47.56905,-14.9299 -50.05957,-40.7786 l 110.82858,0 c 4.7319,-43.00687 -26.15062,-61.94771 -60.76901,-61.94771 -34.61832,0 -62.51227,23.84317 -62.51227,56.82257 0,34.98484 27.89395,56.59974 62.51227,56.59974 z m -50.05957,-61.05642 c 2.73957,-26.96289 24.6562,-42.33838 50.05957,-42.33838 29.63733,0 49.56156,15.15267 49.81059,42.33838 z m -87.54992,-82.6713 0,32.08807 -26.15053,0 0,9.13617 26.15053,0 0,67.07288 c 0,21.6149 8.46779,35.4306 34.61838,35.4306 7.72063,0 15.44126,-2.2283 23.1619,-5.5708 l -4.2339,-8.9133 c -6.22632,2.674 -12.95074,4.4565 -18.928,4.4565 -19.17706,0 -22.66386,-10.4731 -22.66386,-25.403 l 0,-67.07288 41.84092,0 0,-9.13617 -41.84092,0 0,-33.20222 z M 703.92858,640 c 34.61833,0 62.51229,-21.3919 62.51229,-56.37691 0,-34.9849 -27.89396,-57.26825 -62.51229,-57.26825 -34.61837,0 -62.51227,22.28335 -62.51227,57.26825 0,34.98501 27.8939,56.37691 62.51227,56.37691 z m 0,-10.696 c -27.89395,0 -50.55775,-17.1582 -50.55775,-45.68091 0,-28.52273 22.6638,-47.01789 50.55775,-47.01789 27.8939,0 50.5577,18.49516 50.5577,47.01789 0,28.52271 -22.6638,45.68091 -50.5577,45.68091 z m -154.55677,-100.94365 0,110.07985 12.20357,0 0,-64.17612 c 0,-20.05505 17.68274,-36.54471 40.59565,-36.76756 7.22252,0 14.44505,1.55985 20.92042,5.12517 l 5.47916,-8.91333 c -8.21873,-4.45667 -17.18463,-6.685 -26.39958,-6.46218 -15.69038,0 -33.12406,5.79368 -40.8447,20.72351 l -0.4981,-19.60934 z m -82.07076,-32.08807 0,32.08807 -26.15053,0 0,9.13617 26.15053,0 0,67.07288 c 0,21.6149 8.46785,35.4306 34.61838,35.4306 7.72063,0 15.44126,-2.2283 23.16189,-5.5708 l -4.23389,-8.9133 c -6.22632,2.674 -12.95074,4.4565 -18.928,4.4565 -19.17706,0 -22.6638,-10.4731 -22.6638,-25.403 l 0,-67.07288 41.84086,0 0,-9.13617 -41.84086,0 0,-33.20222 z m -125.14903,-13.81566 0,155.98358 11.95454,0 0,-53.92578 65.999,53.92578 15.44128,0 0,-0.6685 -69.48576,-57.49111 62.26322,-51.47458 0,-0.44566 -16.18842,0 -58.02932,48.13207 0,-94.0358 z M 252.24782,640 c 19.67516,0 41.09369,-7.1306 53.04827,-21.1692 l -8.71691,-6.2394 c -9.21495,10.9188 -28.14294,16.7126 -44.33136,16.7126 -25.40344,0 -47.56913,-14.9299 -50.05965,-40.7786 l 110.82855,0 c 4.73201,-43.00687 -26.15059,-61.94771 -60.7689,-61.94771 -34.61839,0 -62.51229,23.84317 -62.51229,56.82257 0,34.98484 27.8939,56.59974 62.51229,56.59974 z m -50.05965,-61.05642 c 2.73957,-26.96289 24.65621,-42.33838 50.05965,-42.33838 29.63726,0 49.56147,15.15267 49.81059,42.33838 z m -51.69014,-96.48696 0,155.98358 12.20358,0 0,-155.98358 z m -137.298177,11.36451 107.092697,0 0,-11.36451 -120.29255,0 0,155.98358 123.28119,0 0,-11.5873 -110.081337,0 0,-61.50214 102.111657,0 0,-10.9189 -102.111657,0 z"
     sodipodi:nodetypes="cccccccccccccsssssccccsssccccsssccsscscccccssscccsssccccccsssccssscsscscsccccccccccccccccccccccssccsccccsscccccccccccccccccccccccccccssscccscsccscccccccsssccscccccsssccsssccsccsccssscscccccccssccssccccccsssssssssscccsccccccccccccssccssccccccccccccccccccccsccsccssscscccccccccccccccccccc" />
</svg>
